<?xml version="1.0" encoding="utf-8"?>
<!-- Generator: Adobe Illustrator 26.0.0, SVG Export Plug-In . SVG Version: 6.00 Build 0)  -->
<svg version="1.1" id="圖層_1" xmlns="http://www.w3.org/2000/svg" xmlns:xlink="http://www.w3.org/1999/xlink" x="0px" y="0px"
	 viewBox="0 0 1920 1080" style="enable-background:new 0 0 1920 1080;" xml:space="preserve">
<style type="text/css">
	.st0{fill:#FFFFFF;}
	.st1{fill:url(#SVGID_1_);}
	.st2{fill:#F7F7F7;}
	.st3{fill:#474747;}
	.st4{font-family:'AdobeMingStd-Light-B5pc-H';}
	.st5{font-size:36px;}
	.st6{fill:#F7F8F9;}
	.st7{font-size:35px;}
	.st8{fill:#F9F9F9;}
	.st9{font-size:90.1494px;}
	.st10{fill:#AFAFAF;}
	.st11{fill:#4F5051;}
	.st12{font-family:'DFKaiShu-SB-Estd-BF';}
	.st13{font-size:175.5165px;}
	.st14{fill:#B7B7B7;}
	.st15{fill:#747577;}
	.st16{fill:#FCFCFC;}
	.st17{fill:#ADADAD;}
	.st18{fill:#636363;}
	.st19{fill:none;}
</style>
<g>
	<rect x="0.5" y="0.5" class="st0" width="1919" height="1079"/>
	<path d="M1919,1v1078H1V1H1919 M1920,0H0v1080h1920V0L1920,0z"/>
</g>
<g>
	<linearGradient id="SVGID_1_" gradientUnits="userSpaceOnUse" x1="0.5" y1="72" x2="1919.5" y2="72">
		<stop  offset="0" style="stop-color:#2E3192"/>
		<stop  offset="1" style="stop-color:#4C0E99"/>
	</linearGradient>
	<rect x="0.5" y="0.5" class="st1" width="1919" height="143"/>
	<path d="M1919,1v142H1V1H1919 M1920,0H0v144h1920V0L1920,0z"/>
</g>
<g>
	<rect x="949.5" y="56.5" class="st2" width="136" height="56"/>
	<path d="M1085,57v55H950V57H1085 M1086,56H949v57h137V56L1086,56z"/>
</g>
<g>
	<rect x="1110.5" y="55.5" class="st3" width="150" height="56"/>
	<path d="M1260,56v55h-149V56H1260 M1261,55h-151v57h151V55L1261,55z"/>
</g>
<g>
	<rect x="1281.5" y="55.5" class="st0" width="147" height="56"/>
	<path d="M1428,56v55h-146V56H1428 M1429,55h-148v57h148V55L1429,55z"/>
</g>
<g>
	<rect x="1444.5" y="56.5" class="st0" width="144" height="56"/>
	<path d="M1588,57v55h-143V57H1588 M1589,56h-145v57h145V56L1589,56z"/>
</g>
<g>
	<rect x="1764.5" y="53.5" class="st0" width="136" height="56"/>
	<path d="M1900,54v55h-135V54H1900 M1901,53h-137v57h137V53L1901,53z"/>
</g>
<text transform="matrix(1 0 0 1 1799 97)" class="st4 st5">登入</text>
<g>
	<rect x="1604.5" y="53.5" class="st0" width="136" height="56"/>
	<path d="M1740,54v55h-135V54H1740 M1741,53h-137v57h137V53L1741,53z"/>
</g>
<text transform="matrix(1 0 0 1 1639 97)" class="st4 st5">選股</text>
<text transform="matrix(1 0 0 1 1112 98)" class="st6 st4 st7">台股大盤</text>
<text transform="matrix(1 0 0 1 985 99)" class="st4 st5">首頁</text>
<text transform="matrix(1 0 0 1 1285.667 98.6665)" class="st4 st7">財經新聞</text>
<text transform="matrix(1 0 0 1 1445.667 99.3335)" class="st4 st7">國際金融</text>
<rect x="31" y="32" class="st8" width="237" height="100"/>
<text transform="matrix(0.7632 0 0 1 76.0005 112.0918)" class="st4 st9">Logo</text>
<rect x="64" y="242" class="st10" width="1041" height="549"/>
<rect x="121" y="343" class="st11" width="920" height="430"/>
<text transform="matrix(0.6671 0 0 1 321.8584 624.687)" class="st0 st12 st13">各類指數</text>
<g>
	<path class="st0" d="M127.83,352.5c-3.49,0-6.33-2.84-6.33-6.33v-43.33c0-3.49,2.84-6.33,6.33-6.33h123.33
		c3.49,0,6.33,2.84,6.33,6.33v43.33c0,3.49-2.84,6.33-6.33,6.33H127.83z"/>
	<path d="M251.17,297c3.22,0,5.83,2.62,5.83,5.83v43.33c0,3.22-2.62,5.83-5.83,5.83H127.83c-3.22,0-5.83-2.62-5.83-5.83v-43.33
		c0-3.22,2.62-5.83,5.83-5.83H251.17 M251.17,296H127.83c-3.77,0-6.83,3.06-6.83,6.83v43.33c0,3.77,3.06,6.83,6.83,6.83h123.33
		c3.77,0,6.83-3.06,6.83-6.83v-43.33C258,299.06,254.94,296,251.17,296L251.17,296z"/>
</g>
<g>
	<path class="st0" d="M271.17,350.5c-5.33,0-9.67-4.34-9.67-9.67v-36.67c0-5.33,4.34-9.67,9.67-9.67h116.67
		c5.33,0,9.67,4.34,9.67,9.67v36.67c0,5.33-4.34,9.67-9.67,9.67H271.17z"/>
	<path d="M387.83,295c5.05,0,9.17,4.11,9.17,9.17v36.67c0,5.05-4.11,9.17-9.17,9.17H271.17c-5.05,0-9.17-4.11-9.17-9.17v-36.67
		c0-5.05,4.11-9.17,9.17-9.17H387.83 M387.83,294H271.17c-5.61,0-10.17,4.55-10.17,10.17v36.67c0,5.61,4.55,10.17,10.17,10.17
		h116.67c5.61,0,10.17-4.55,10.17-10.17v-36.67C398,298.55,393.45,294,387.83,294L387.83,294z"/>
</g>
<text transform="matrix(1 0 0 1 156.3335 330.6665)" class="st12 st5">上市</text>
<text transform="matrix(1 0 0 1 291.3335 330.6665)" class="st12 st5">上櫃</text>
<rect x="1522" y="242" class="st14" width="379" height="832"/>
<rect x="1129" y="242" class="st14" width="379" height="832"/>
<rect x="1560" y="330" class="st15" width="304" height="744"/>
<rect x="1166" y="330" class="st15" width="304" height="744"/>
<rect x="1166" y="255" class="st15" width="304" height="59"/>
<rect x="1560" y="255" class="st15" width="304" height="59"/>
<text transform="matrix(1 0 0 1 1229.8701 292.5137)" class="st0 st12 st5">成交量排名</text>
<text transform="matrix(1 0 0 1 1632.8701 292.5137)" class="st16 st12 st5">市值排名</text>
<rect x="64" y="816" class="st17" width="1041" height="258"/>
<rect x="99" y="854" class="st18" width="942" height="200"/>
<path class="st0" d="M197,854h-71c-10.49,0-19-8.51-19-19l0,0c0-10.49,8.51-19,19-19h71c10.49,0,19,8.51,19,19l0,0
	C216,845.49,207.49,854,197,854z"/>
<path class="st0" d="M329,854h-71c-10.49,0-19-8.51-19-19l0,0c0-10.49,8.51-19,19-19h71c10.49,0,19,8.51,19,19l0,0
	C348,845.49,339.49,854,329,854z"/>
<path class="st0" d="M457,854h-71c-10.49,0-19-8.51-19-19l0,0c0-10.49,8.51-19,19-19h71c10.49,0,19,8.51,19,19l0,0
	C476,845.49,467.49,854,457,854z"/>
<text transform="matrix(1 0 0 1 129 844.667)" class="st12 st5">外資</text>
<text transform="matrix(1 0 0 1 261 844.667)" class="st12 st5">投信</text>
<text transform="matrix(1 0 0 1 367 848.667)" class="st12 st5">自營商</text>
<text transform="matrix(1 0 0 1 375.6665 976.333)" class="st0 st12 st5">三大法人買賣超</text>
<rect x="1176" y="371" class="st0" width="285" height="55"/>
<rect x="1175" y="442" class="st0" width="285" height="55"/>
<rect x="1175" y="513" class="st0" width="285" height="55"/>
<rect x="1175" y="584" class="st0" width="285" height="55"/>
<text transform="matrix(1 0 0 1 1185 413.3335)" class="st12 st5">1.</text>
<text transform="matrix(1 0 0 1 1185 485.3335)" class="st12 st5">2.</text>
<text transform="matrix(1 0 0 1 1185 550.3335)" class="st12 st5">3.</text>
<text transform="matrix(1 0 0 1 1185 624.3335)" class="st12 st5">4.</text>
<rect x="1570" y="371" class="st0" width="285" height="55"/>
<rect x="1569" y="442" class="st0" width="285" height="55"/>
<rect x="1569" y="513" class="st0" width="285" height="55"/>
<rect x="1569" y="584" class="st0" width="285" height="55"/>
<text transform="matrix(1 0 0 1 1579 413.3335)" class="st12 st5">1.</text>
<text transform="matrix(1 0 0 1 1579 485.3335)" class="st12 st5">2.</text>
<text transform="matrix(1 0 0 1 1579 550.3335)" class="st12 st5">3.</text>
<text transform="matrix(1 0 0 1 1579 624.3335)" class="st12 st5">4.</text>
<rect x="1571" y="657" class="st0" width="285" height="55"/>
<rect x="1570" y="728" class="st0" width="285" height="55"/>
<rect x="1570" y="799" class="st0" width="285" height="55"/>
<rect x="1570" y="870" class="st0" width="285" height="55"/>
<text transform="matrix(1 0 0 1 1580 699.3335)" class="st12 st5">5.</text>
<text transform="matrix(1 0 0 1 1580 771.3335)" class="st12 st5">6.</text>
<text transform="matrix(1 0 0 1 1580 836.3335)" class="st12 st5">7.</text>
<text transform="matrix(1 0 0 1 1580 910.3335)" class="st12 st5">8.</text>
<rect x="1175" y="657" class="st0" width="285" height="55"/>
<rect x="1174" y="728" class="st0" width="285" height="55"/>
<rect x="1174" y="799" class="st0" width="285" height="55"/>
<rect x="1174" y="870" class="st0" width="285" height="55"/>
<text transform="matrix(1 0 0 1 1184 699.3335)" class="st12 st5">5.</text>
<text transform="matrix(1 0 0 1 1184 771.3335)" class="st12 st5">6.</text>
<text transform="matrix(1 0 0 1 1184 836.3335)" class="st12 st5">7.</text>
<text transform="matrix(1 0 0 1 1184 910.3335)" class="st12 st5">8.</text>
<rect x="1174" y="941" class="st0" width="285" height="55"/>
<rect x="1174" y="1012" class="st0" width="285" height="55"/>
<text transform="matrix(1 0 0 1 1184 978.3335)" class="st12 st5">9.</text>
<text transform="matrix(1 0 0 1 1184 1052.3335)" class="st12 st5">10.</text>
<rect x="1569" y="941" class="st0" width="285" height="55"/>
<rect x="1569" y="1012" class="st0" width="285" height="55"/>
<text transform="matrix(1 0 0 1 1579 978.3335)" class="st12 st5">9.</text>
<text transform="matrix(1 0 0 1 1579 1052.3335)" class="st12 st5">10.</text>
<g>
	<path class="st0" d="M431,108.5c-13.51,0-24.5-10.99-24.5-24.5s10.99-24.5,24.5-24.5h290c13.51,0,24.5,10.99,24.5,24.5
		s-10.99,24.5-24.5,24.5H431z"/>
	<path d="M721,60c13.23,0,24,10.77,24,24c0,13.23-10.77,24-24,24H431c-13.23,0-24-10.77-24-24c0-13.23,10.77-24,24-24H721 M721,59
		H431c-13.81,0-25,11.19-25,25v0c0,13.81,11.19,25,25,25h290c13.81,0,25-11.19,25-25v0C746,70.19,734.81,59,721,59L721,59z"/>
</g>
<rect x="422.67" y="67.33" class="st19" width="254.67" height="33.33"/>
<text transform="matrix(1 0 0 1 422.6665 96.1616)" class="st12 st5">股票搜尋...</text>
</svg>
